<svg xmlns="http://www.w3.org/2000/svg" width="616" height="101" viewBox="0 0 616 101">
  <defs>
    <style>
      .cls-1, .cls-3 {
        fill: #fff;
      }

      .cls-1 {
        fill-rule: evenodd;
      }

      .cls-2 {
        fill: #1db954;
      }
    </style>
  </defs>
  <path id="SpotifyParty_" data-name="SpotifyParty " class="cls-1" d="M158.853,26.847c-1.6-7.9-8.1-18.1-24.8-18.1-13.2,0-24.1,9.8-24.1,21.7,0,10.6,7.2,17.7,18,19.9l10,2.1c6.1,1.3,9.5,5,9.5,9.6,0,5.5-4.4,9.8-12.9,9.8-10.2,0-15.5-6.8-16.2-14.2l-11.2,3.2c1.1,10.2,9.4,21.8,27.4,21.8,16.2,0,25.1-10.5,25.1-21.5,0-10-6.7-17.9-19.2-20.4l-10.2-2.1c-5.5-1.2-8.3-4.6-8.3-9.1,0-5.4,5-10.2,12.2-10.2,9.5,0,13.2,6.5,13.9,10.9Zm16.1,73.3V75.65c2.5,3.7,7.8,6.7,14.8,6.7,14,0,22.9-11,22.9-25.6,0-14.4-8.1-25.4-22.5-25.4-7.5,0-13.1,3.5-15.5,7.7v-6.6h-11.2v67.7h11.5Zm26.1-43.4c0,9.3-5.4,15.3-13.1,15.3-7.6,0-13.1-6-13.1-15.3,0-9.1,5.5-15.1,13.1-15.1C195.754,41.648,201.054,47.648,201.054,56.748Zm38.7,15.5c-7.1,0-13.6-5.4-13.6-15.5s6.5-15.3,13.6-15.3c7.2,0,13.6,5.2,13.6,15.3C253.353,66.949,246.952,72.249,239.752,72.249Zm0-41.3c-14.5,0-25.2,10.9-25.2,25.8,0,15,10.7,25.9,25.2,25.9,14.6,0,25.3-10.9,25.3-25.9C265.053,41.848,254.353,30.947,239.752,30.947Zm45.4-13.4h-10.5v7.3c0,4.3-2.3,7.6-7.5,7.6h-2.5v10.3h9v24.5c0,9.1,5.6,14.5,14.6,14.5a18.25,18.25,0,0,0,7.1-1.1v-9.6a24.766,24.766,0,0,1-4,.4c-4.3,0-6.2-1.8-6.2-6.1v-22.6h10.1v-10.3h-10.1v-14.9Zm28,63.6v-48.7h-11.5v48.7h11.5Zm-13.3-65.8a7.551,7.551,0,0,0,15.1,0A7.551,7.551,0,1,0,299.85,15.346Zm44.4,3.3a14.872,14.872,0,0,1,4.2.5v-9.9a16.467,16.467,0,0,0-6.1-1c-10,0-17,6.6-17,17.5v6.7h-8.5v10.1h8.5v38.6h11.7v-38.6h11.3v-10.1h-11.3v-6.4C337.051,20.046,341.151,18.646,344.251,18.646Zm24.7,82.2,31-68.4h-12.3l-13.1,30.8-14-30.8h-13.1l20.8,42.9-11.7,25.5h12.4Zm47-58v-22h12.5c7.6,0,12.2,4.3,12.2,11.1,0,6.7-4.6,10.9-12.2,10.9h-12.5Zm14.3,10.6c13.6,0,22.6-9.1,22.6-21.6,0-12.4-9-21.6-22.6-21.6h-26.3v70.9h12v-27.7h14.3Zm22.1,14.5c0,7.7,6.3,14.7,16.5,14.7,7.9,0,12.7-4,15-7.7a27.08,27.08,0,0,0,.5,6.2h10.8a44.011,44.011,0,0,1-.6-7.8v-24.2c0-9.7-5.7-18.2-20.7-18.2-12,0-19.6,7.5-20.5,15.9l10.6,2.4c0.5-4.9,3.9-8.8,10-8.8,6.4,0,9.2,3.3,9.2,7.4,0,1.7-.8,3.1-3.6,3.5l-12.5,1.9C458.747,54.448,452.347,59.249,452.347,67.949Zm18.7,5.6c-4.6,0-7.1-3-7.1-6.3,0-4,2.9-6,6.5-6.6l12.7-1.9v2.2C483.149,70.449,477.548,73.549,471.048,73.549Zm60.5-41.4a16.623,16.623,0,0,0-3.1-.3c-6.4,0-11.8,3.1-14.1,8.4v-7.8h-11.3v48.7h11.6v-23.2c0-9.1,4.1-14.3,13.1-14.3a25.326,25.326,0,0,1,3.8.3v-11.8Zm21-14.6h-10.5v7.3c0,4.3-2.3,7.6-7.5,7.6h-2.5v10.3h9v24.5c0,9.1,5.6,14.5,14.6,14.5a18.253,18.253,0,0,0,7.1-1.1v-9.6a24.766,24.766,0,0,1-4,.4c-4.3,0-6.2-1.8-6.2-6.1v-22.6h10.1v-10.3h-10.1v-14.9Zm32.1,83.305,31-68.4h-12.3l-13.1,30.8-14-30.8h-13.1l20.8,42.9-11.7,25.5h12.4Z"/>
  <circle id="Elipsa_1" data-name="Elipsa 1" class="cls-2" cx="50" cy="50" r="50"/>
  <circle id="Elipsa_2" data-name="Elipsa 2" class="cls-3" cx="27" cy="32" r="5"/>
  <circle id="Elipsa_2-2" data-name="Elipsa 2" class="cls-3" cx="27" cy="50" r="5"/>
  <circle id="Elipsa_2-3" data-name="Elipsa 2" class="cls-3" cx="27" cy="68" r="5"/>
  <rect id="Prostokąt_zaokrąglony_1" data-name="Prostokąt zaokrąglony 1" class="cls-3" x="36" y="27" width="40" height="10" rx="5" ry="5"/>
  <rect id="Prostokąt_zaokrąglony_1-2" data-name="Prostokąt zaokrąglony 1" class="cls-3" x="36" y="45" width="40" height="10" rx="5" ry="5"/>
  <rect id="Prostokąt_zaokrąglony_1-3" data-name="Prostokąt zaokrąglony 1" class="cls-3" x="36" y="63" width="40" height="10" rx="5" ry="5"/>
</svg>
